<?xml version="1.0" encoding="UTF-8" standalone="no"?>
<!DOCTYPE svg PUBLIC "-//W3C//DTD SVG 1.1//EN"
 "http://www.w3.org/Graphics/SVG/1.1/DTD/svg11.dtd">
<!-- Generated by graphviz version 2.38.0 (20140413.2041)
 -->
<!-- Title: %3 Pages: 1 -->
<svg width="753pt" height="355pt"
 viewBox="0.00 0.00 752.86 355.00" xmlns="http://www.w3.org/2000/svg" xmlns:xlink="http://www.w3.org/1999/xlink">
<g id="graph0" class="graph" transform="scale(1 1) rotate(0) translate(4 351)">
<title>%3</title>
<polygon fill="#333333" stroke="none" points="-4,4 -4,-351 748.861,-351 748.861,4 -4,4"/>
<text text-anchor="middle" x="372.431" y="-9.2" font-family="Times,serif" font-size="16.00" fill="white">Network Map</text>
<!-- R6 -->
<g id="node1" class="node"><title>R6</title>
<polygon fill="#006699" stroke="#006699" points="453.361,-347 376.361,-347 376.361,-274 453.361,-274 453.361,-347"/>
<text text-anchor="middle" x="414.861" y="-306.8" font-family="Helvetica,sans-Serif" font-size="14.00" fill="white">R6</text>
</g>
<!-- SW1 -->
<g id="node2" class="node"><title>SW1</title>
<polygon fill="#006699" stroke="#006699" points="460.861,-223 368.861,-223 368.861,-150 460.861,-150 460.861,-223"/>
<text text-anchor="middle" x="414.861" y="-182.8" font-family="Helvetica,sans-Serif" font-size="14.00" fill="white">SW1</text>
</g>
<!-- SW1&#45;&#45;R6 -->
<g id="edge7" class="edge"><title>SW1&#45;&#45;R6</title>
<path fill="none" stroke="green" stroke-dasharray="5,2" d="M414.861,-223.115C414.861,-239.01 414.861,-257.704 414.861,-273.629"/>
<text text-anchor="middle" x="464.861" y="-244.8" font-family="Courier,monospace" font-size="14.00" fill="white"> &#160;&#160;&#160;&#160;&#160;&#160;&#160;&#160;&#160;&#160;&#160;</text>
<text text-anchor="middle" x="389.861" y="-262.429" font-family="Courier,monospace" font-size="14.00" fill="white">Eth0/1</text>
<text text-anchor="middle" x="389.861" y="-226.915" font-family="Courier,monospace" font-size="14.00" fill="white">Eth0/5</text>
</g>
<!-- SW2 -->
<g id="node3" class="node"><title>SW2</title>
<polygon fill="#006699" stroke="#006699" points="706.861,-223 614.861,-223 614.861,-150 706.861,-150 706.861,-223"/>
<text text-anchor="middle" x="660.861" y="-182.8" font-family="Helvetica,sans-Serif" font-size="14.00" fill="white">SW2</text>
</g>
<!-- R4 -->
<g id="node4" class="node"><title>R4</title>
<polygon fill="#006699" stroke="#006699" points="84.3611,-223 7.36111,-223 7.36111,-150 84.3611,-150 84.3611,-223"/>
<text text-anchor="middle" x="45.8611" y="-182.8" font-family="Helvetica,sans-Serif" font-size="14.00" fill="white">R4</text>
</g>
<!-- R3 -->
<g id="node5" class="node"><title>R3</title>
<polygon fill="#006699" stroke="#006699" points="207.361,-99 130.361,-99 130.361,-26 207.361,-26 207.361,-99"/>
<text text-anchor="middle" x="168.861" y="-58.8" font-family="Helvetica,sans-Serif" font-size="14.00" fill="white">R3</text>
</g>
<!-- R3&#45;&#45;SW1 -->
<g id="edge4" class="edge"><title>R3&#45;&#45;SW1</title>
<path fill="none" stroke="green" stroke-dasharray="5,2" d="M207.569,-82.6967C251.273,-104.371 322.334,-139.613 368.841,-162.677"/>
<text text-anchor="middle" x="356.861" y="-120.8" font-family="Courier,monospace" font-size="14.00" fill="white"> &#160;&#160;&#160;&#160;&#160;&#160;&#160;&#160;&#160;&#160;&#160;</text>
<text text-anchor="middle" x="343.841" y="-151.477" font-family="Courier,monospace" font-size="14.00" fill="white">Eth0/3</text>
<text text-anchor="middle" x="232.569" y="-71.4967" font-family="Courier,monospace" font-size="14.00" fill="white">Eth0/0</text>
</g>
<!-- R3&#45;&#45;R4 -->
<g id="edge5" class="edge"><title>R3&#45;&#45;R4</title>
<path fill="none" stroke="green" stroke-dasharray="5,2" d="M130.188,-74.7446C108.081,-83.0509 81.5227,-96.5272 64.8611,-117 57.3047,-126.285 52.7468,-138.368 50,-149.796"/>
<text text-anchor="middle" x="114.861" y="-120.8" font-family="Courier,monospace" font-size="14.00" fill="white"> &#160;&#160;&#160;&#160;&#160;&#160;&#160;&#160;&#160;&#160;&#160;</text>
<text text-anchor="middle" x="25" y="-138.596" font-family="Courier,monospace" font-size="14.00" fill="white">Eth0/0</text>
<text text-anchor="middle" x="105.188" y="-63.5446" font-family="Courier,monospace" font-size="14.00" fill="white">Eth0/1</text>
</g>
<!-- R5 -->
<g id="node6" class="node"><title>R5</title>
<polygon fill="#006699" stroke="#006699" points="207.361,-223 130.361,-223 130.361,-150 207.361,-150 207.361,-223"/>
<text text-anchor="middle" x="168.861" y="-182.8" font-family="Helvetica,sans-Serif" font-size="14.00" fill="white">R5</text>
</g>
<!-- R3&#45;&#45;R5 -->
<g id="edge6" class="edge"><title>R3&#45;&#45;R5</title>
<path fill="none" stroke="green" stroke-dasharray="5,2" d="M168.861,-99.1154C168.861,-115.01 168.861,-133.704 168.861,-149.629"/>
<text text-anchor="middle" x="218.861" y="-120.8" font-family="Courier,monospace" font-size="14.00" fill="white"> &#160;&#160;&#160;&#160;&#160;&#160;&#160;&#160;&#160;&#160;&#160;</text>
<text text-anchor="middle" x="143.861" y="-138.429" font-family="Courier,monospace" font-size="14.00" fill="white">Eth0/0</text>
<text text-anchor="middle" x="143.861" y="-102.915" font-family="Courier,monospace" font-size="14.00" fill="white">Eth0/2</text>
</g>
<!-- R2 -->
<g id="node7" class="node"><title>R2</title>
<polygon fill="#006699" stroke="#006699" points="637.361,-99 560.361,-99 560.361,-26 637.361,-26 637.361,-99"/>
<text text-anchor="middle" x="598.861" y="-58.8" font-family="Helvetica,sans-Serif" font-size="14.00" fill="white">R2</text>
</g>
<!-- R2&#45;&#45;SW1 -->
<g id="edge2" class="edge"><title>R2&#45;&#45;SW1</title>
<path fill="none" stroke="green" stroke-dasharray="5,2" d="M560.175,-96.0251C540.939,-112.088 520.756,-128.733 515.861,-132 498.614,-143.512 478.618,-154.54 460.991,-163.561"/>
<text text-anchor="middle" x="584.861" y="-120.8" font-family="Courier,monospace" font-size="14.00" fill="white"> &#160;&#160;&#160;&#160;&#160;&#160;&#160;&#160;&#160;&#160;&#160;</text>
<text text-anchor="middle" x="485.991" y="-152.361" font-family="Courier,monospace" font-size="14.00" fill="white">Eth0/2</text>
<text text-anchor="middle" x="535.175" y="-84.8251" font-family="Courier,monospace" font-size="14.00" fill="white">Eth0/0</text>
</g>
<!-- R2&#45;&#45;SW2 -->
<g id="edge3" class="edge"><title>R2&#45;&#45;SW2</title>
<path fill="none" stroke="green" stroke-dasharray="5,2" d="M628.096,-99.2785C632.037,-105.007 635.777,-111.023 638.861,-117 644.131,-127.212 648.454,-138.931 651.831,-149.755"/>
<text text-anchor="middle" x="694.861" y="-120.8" font-family="Courier,monospace" font-size="14.00" fill="white"> &#160;&#160;&#160;&#160;&#160;&#160;&#160;&#160;&#160;&#160;&#160;</text>
<text text-anchor="middle" x="622.831" y="-138.555" font-family="Courier,monospace" font-size="14.00" fill="white">Eth0/11</text>
<text text-anchor="middle" x="603.096" y="-103.079" font-family="Courier,monospace" font-size="14.00" fill="white">Eth0/1</text>
</g>
<!-- R1 -->
<g id="node8" class="node"><title>R1</title>
<polygon fill="#006699" stroke="#006699" points="453.361,-99 376.361,-99 376.361,-26 453.361,-26 453.361,-99"/>
<text text-anchor="middle" x="414.861" y="-58.8" font-family="Helvetica,sans-Serif" font-size="14.00" fill="white">R1</text>
</g>
<!-- R1&#45;&#45;SW1 -->
<g id="edge1" class="edge"><title>R1&#45;&#45;SW1</title>
<path fill="none" stroke="green" stroke-dasharray="5,2" d="M414.861,-99.1154C414.861,-115.01 414.861,-133.704 414.861,-149.629"/>
<text text-anchor="middle" x="464.861" y="-120.8" font-family="Courier,monospace" font-size="14.00" fill="white"> &#160;&#160;&#160;&#160;&#160;&#160;&#160;&#160;&#160;&#160;&#160;</text>
<text text-anchor="middle" x="439.861" y="-138.429" font-family="Courier,monospace" font-size="14.00" fill="white">Eth0/1</text>
<text text-anchor="middle" x="389.861" y="-102.915" font-family="Courier,monospace" font-size="14.00" fill="white">Eth0/0</text>
</g>
</g>
</svg>
